<?xml version="1.0" encoding="utf-8"?>
<!-- Generator: Adobe Illustrator 16.0.0, SVG Export Plug-In . SVG Version: 6.00 Build 0)  -->
<!DOCTYPE svg PUBLIC "-//W3C//DTD SVG 1.0//EN" "http://www.w3.org/TR/2001/REC-SVG-20010904/DTD/svg10.dtd">
<svg version="1.0" id="Layer_5" xmlns="http://www.w3.org/2000/svg" xmlns:xlink="http://www.w3.org/1999/xlink" x="0px" y="0px"
	 width="48px" height="48px" viewBox="0 0 48 48" enable-background="new 0 0 48 48" xml:space="preserve">
<path fill="#282828" d="M26.687,28.984H39.63v-3.09H26.687v-3.724h11.269v-0.775l1.8,1.756c0,0,5.857-3.701,5.719-7.689
	c-0.173-3.988-4.003-4.85-9.971-5.139c-1.83-0.068-5.146,0.126-8.863,0.455v-2.59h-7.408v3.337
	c-4.224,0.457-8.114,0.942-10.084,1.192v-1.412H2.562v11.691h6.585v-0.826h10.044v3.724H7.622v3.09h11.569v8.994H2.562v3.859h41.71
	v-3.859H26.687V28.984z M9.147,19.078V16.42c5.558-1.291,24.28-4.255,27.74-2.524c4.113,2.064-1.385,5.129-1.385,5.129l0.052,0.054
	H9.147z"/>
<path fill="#282828" d="M30.216,33.416c0,2.092,1.888,3.797,4.202,3.797c2.31,0,4.198-1.705,4.198-3.797s-1.889-3.783-4.198-3.783
	C32.104,29.633,30.216,31.324,30.216,33.416z"/>
</svg>
