<?xml version="1.0" encoding="utf-8"?>
<!-- Generator: Adobe Illustrator 16.0.0, SVG Export Plug-In . SVG Version: 6.00 Build 0)  -->
<!DOCTYPE svg PUBLIC "-//W3C//DTD SVG 1.0//EN" "http://www.w3.org/TR/2001/REC-SVG-20010904/DTD/svg10.dtd">
<svg version="1.0" xmlns="http://www.w3.org/2000/svg" xmlns:xlink="http://www.w3.org/1999/xlink" x="0px" y="0px" width="48px"
	 height="48px" viewBox="0 0 48 48" enable-background="new 0 0 48 48" xml:space="preserve">
<g id="Layer_2">
	<path fill="#282828" d="M27.151,22.333h14.194v-3.418H27.15c-0.001-1.809-0.002-3.469-0.004-4.725
		c5.156-0.117,10.403-0.262,14.652-0.434l-0.808-5.469c0,0-13.911,2.902-35.439,2.902l0.437,3.369c0,0,6.511-0.078,14.574-0.232
		v4.588H6.011v3.418h14.552v5.575H2.913v3.865h17.649v2.85c-0.09,2.848-2.335,3.617-4.549,3.656
		c-0.573,1.406-0.747,1.826-1.375,3.168c1.846,0.318,8.22,0.648,10.867-1.607c1.885-1.869,1.634-4.209,1.646-7.574
		c0-0.102,0-0.27,0-0.492h17.834v-3.865H27.152C27.152,26.251,27.152,24.3,27.151,22.333z"/>
</g>
</svg>
