<?xml version="1.0" encoding="utf-8"?>
<!-- Generator: Adobe Illustrator 16.0.0, SVG Export Plug-In . SVG Version: 6.00 Build 0)  -->
<!DOCTYPE svg PUBLIC "-//W3C//DTD SVG 1.0//EN" "http://www.w3.org/TR/2001/REC-SVG-20010904/DTD/svg10.dtd">
<svg version="1.0" id="Layer_3" xmlns="http://www.w3.org/2000/svg" xmlns:xlink="http://www.w3.org/1999/xlink" x="0px" y="0px"
	 width="48px" height="48px" viewBox="0 0 48 48" enable-background="new 0 0 48 48" xml:space="preserve">
<path fill="#282828" d="M41.225,35.887c0-1.568,0-17.039,0-20.117c0-3.885-0.874-9.235-13.828-5.417V9.038h-6.372v16.465
	c-1.05-0.954-3.798-3.322-7.192-5.207v-2.497h5.835v-3.814h-5.835V7.364H6.906v6.621H1.021v3.814h5.673
	c-0.592,2.344-2.154,6.746-6.289,12.64l2.163,3.305c1.708-1.945,3.135-3.758,4.339-5.459v13.59h6.926V24.831
	c1.908,2.089,3.389,4.208,3.389,4.208l3.804-2.766v0.625c0,4.656-0.124,9.906-5.502,12.885l1.28,2.693
	c9.74-3.992,10.594-6.871,10.594-15.578V13.614c6.184-1.694,7.194,0.872,7.194,2.713c0,1.23,0,18.468,0,18.468
	c0,4.365,2.701,6.154,5.611,6.51c2.47,0.305,5.656-0.525,7.393-1.088l-1.466-3.471C44.275,37.908,41.225,38.807,41.225,35.887z"/>
</svg>
